<?xml version="1.0" encoding="UTF-8" standalone="no"?>
<!-- Created with Inkscape (http://www.inkscape.org/) -->

<svg
   xmlns:dc="http://purl.org/dc/elements/1.1/"
   xmlns:cc="http://creativecommons.org/ns#"
   xmlns:rdf="http://www.w3.org/1999/02/22-rdf-syntax-ns#"
   xmlns:svg="http://www.w3.org/2000/svg"
   xmlns="http://www.w3.org/2000/svg"
   xmlns:sodipodi="http://sodipodi.sourceforge.net/DTD/sodipodi-0.dtd"
   xmlns:inkscape="http://www.inkscape.org/namespaces/inkscape"
   width="210mm"
   height="297mm"
   viewBox="0 0 210 297"
   version="1.1"
   id="svg8"
   inkscape:version="0.92.4 5da689c313, 2019-01-14"
   sodipodi:docname="goggles_small.svg">
  <defs
     id="defs2">
    <inkscape:path-effect
       effect="mirror_symmetry"
       start_point="108.61485,8.0647253"
       end_point="108.61485,98.320791"
       center_point="108.61485,53.192758"
       id="path-effect4576"
       is_visible="true"
       mode="free"
       discard_orig_path="false"
       fuse_paths="true"
       oposite_fuse="false" />
    <inkscape:path-effect
       effect="mirror_symmetry"
       start_point="108.58647,6.878927"
       end_point="108.58647,95.927123"
       center_point="108.58647,51.403025"
       id="path-effect4537"
       is_visible="true"
       mode="free"
       discard_orig_path="false"
       fuse_paths="true"
       oposite_fuse="false" />
    <inkscape:path-effect
       effect="mirror_symmetry"
       start_point="108.61485,8.064725"
       end_point="108.61485,98.320791"
       center_point="108.61485,53.192758"
       id="path-effect4576-7"
       is_visible="true"
       mode="free"
       discard_orig_path="false"
       fuse_paths="true"
       oposite_fuse="false" />
    <inkscape:path-effect
       effect="mirror_symmetry"
       start_point="108.61485,8.064725"
       end_point="108.61485,98.320791"
       center_point="108.61485,53.192758"
       id="path-effect4576-7-3"
       is_visible="true"
       mode="free"
       discard_orig_path="false"
       fuse_paths="true"
       oposite_fuse="false" />
  </defs>
  <sodipodi:namedview
     id="base"
     pagecolor="#ffffff"
     bordercolor="#666666"
     borderopacity="1.0"
     inkscape:pageopacity="0.0"
     inkscape:pageshadow="2"
     inkscape:zoom="1.4142136"
     inkscape:cx="367.85023"
     inkscape:cy="679.46892"
     inkscape:document-units="mm"
     inkscape:current-layer="layer1"
     showgrid="false"
     inkscape:window-width="3840"
     inkscape:window-height="2127"
     inkscape:window-x="0"
     inkscape:window-y="33"
     inkscape:window-maximized="0" />
  <metadata
     id="metadata5">
    <rdf:RDF>
      <cc:Work
         rdf:about="">
        <dc:format>image/svg+xml</dc:format>
        <dc:type
           rdf:resource="http://purl.org/dc/dcmitype/StillImage" />
        <dc:title></dc:title>
      </cc:Work>
    </rdf:RDF>
  </metadata>
  <g
     inkscape:label="Layer 1"
     inkscape:groupmode="layer"
     id="layer1">
    <path
       id="path4549-6"
       style="fill:none;fill-opacity:0.42639597;stroke:#000000;stroke-width:0.14012399;stroke-miterlimit:4;stroke-dasharray:none;stroke-dashoffset:0.01396293;stroke-opacity:1"
       d="m 22.287438,87.648437 c 0,0.801642 -0.649859,1.451501 -1.451501,1.451501 -0.801642,0 -1.4515,-0.649859 -1.4515,-1.451501 0,-0.801641 0.649859,-1.4515 1.4515,-1.4515 0.801642,0 1.451501,0.649858 1.451501,1.4515 z m 172.654822,0 c 0,0.801642 0.64986,1.451501 1.4515,1.451501 0.80164,0 1.4515,-0.649859 1.4515,-1.451501 0,-0.801641 -0.64986,-1.4515 -1.4515,-1.4515 -0.80164,0 -1.4515,0.649858 -1.4515,1.4515 z M 14.284769,44.785938 c 0,0.801642 -0.649858,1.451501 -1.4515,1.451501 -0.801642,0 -1.451501,-0.649859 -1.451501,-1.451501 0,-0.801642 0.649859,-1.4515 1.451501,-1.4515 0.801641,0 1.4515,0.649859 1.4515,1.4515 z m 188.660161,0 c 0,0.801642 0.64986,1.451501 1.4515,1.451501 0.80164,0 1.4515,-0.649859 1.4515,-1.451501 0,-0.801642 -0.64986,-1.4515 -1.4515,-1.4515 -0.80164,0 -1.4515,0.649859 -1.4515,1.4515 z M 16.206181,17.996876 c 0,0.801642 -0.649859,1.4515 -1.451501,1.4515 -0.801641,0 -1.4515,-0.649859 -1.4515,-1.4515 0,-0.801642 0.649858,-1.451501 1.4515,-1.451501 0.801642,0 1.451501,0.649859 1.451501,1.451501 z m 184.817339,0 c 0,0.801642 0.64986,1.4515 1.4515,1.4515 0.80164,0 1.4515,-0.649859 1.4515,-1.4515 0,-0.801642 -0.64986,-1.451501 -1.4515,-1.451501 -0.80164,0 -1.4515,0.649859 -1.4515,1.451501 z m -92.38156,35.819786 c 13.08299,-0.188988 4.95065,11.84375 21.4844,25.901066 16.53375,14.057315 67.98637,28.056882 75.34545,10.153458 7.35907,-17.903419 -37.62015,-31.893665 -44.83643,-31.960485 29.2142,-8.203432 49.29284,6.078138 49.16949,-14.031648 -0.0984,-16.037123 -38.61234,-13.630746 -50.50584,-13.831198 11.20914,-6.335021 48.43347,0.02811 49.23534,-10.89756 C 209.33625,8.2246267 187.16188,8.1317536 168.31938,8.0649363 149.47688,7.9981189 144.41989,23.849398 108.61485,23.849398 72.809813,23.849398 67.752824,7.9981189 48.910323,8.0649363 30.067822,8.1317536 7.8934512,8.2246267 8.6953274,19.150295 9.4972036,30.075963 46.721525,23.712834 57.930668,30.047855 46.037174,30.248307 7.5231976,27.84193 7.4248286,43.879053 7.3014776,63.988839 27.38012,49.707269 56.594322,57.910701 49.378044,57.977521 4.3988188,71.967767 11.757893,89.871186 19.116966,107.77461 70.569592,93.775043 87.103341,79.717728 103.63709,65.660412 95.504747,53.627674 108.58774,53.816662"
       inkscape:path-effect="#path-effect4576"
       inkscape:original-d="m 22.287438,87.648437 c 0,0.801642 -0.649859,1.451501 -1.451501,1.451501 -0.801642,0 -1.4515,-0.649859 -1.4515,-1.451501 0,-0.801641 0.649859,-1.4515 1.4515,-1.4515 0.801642,0 1.451501,0.649858 1.451501,1.4515 z M 14.284769,44.785938 c 0,0.801642 -0.649858,1.451501 -1.4515,1.451501 -0.801642,0 -1.451501,-0.649859 -1.451501,-1.451501 0,-0.801642 0.649859,-1.4515 1.451501,-1.4515 0.801641,0 1.4515,0.649859 1.4515,1.4515 z m 1.921412,-26.789062 c 0,0.801642 -0.649859,1.4515 -1.451501,1.4515 -0.801641,0 -1.4515,-0.649859 -1.4515,-1.4515 0,-0.801642 0.649858,-1.451501 1.4515,-1.451501 0.801642,0 1.451501,0.649859 1.451501,1.451501 z m 92.408669,5.852522 C 72.809813,23.849398 67.752824,7.9981189 48.910323,8.0649363 30.067822,8.1317536 7.8934512,8.2246267 8.6953274,19.150295 9.4972036,30.075963 46.721525,23.712834 57.930668,30.047855 46.037174,30.248307 7.5231976,27.84193 7.4248286,43.879053 7.3014776,63.988839 27.38012,49.707269 56.594322,57.910701 49.378044,57.977521 4.3988188,71.967767 11.757893,89.871186 19.116966,107.77461 70.569592,93.775043 87.103341,79.717728 103.63709,65.660412 95.504747,53.627674 108.58774,53.816662"
       inkscape:connector-curvature="0"
       transform="matrix(1.0309813,0,0,1.0309813,-6.9798793,-4.2366855)"
       sodipodi:nodetypes="ssssssssssssssscszcscssc" />
    <path
       id="path4549-6-5"
       style="fill:none;fill-opacity:0.42639597;stroke:#000000;stroke-width:0.14012399;stroke-miterlimit:4;stroke-dasharray:none;stroke-dashoffset:0.01396293;stroke-opacity:1"
       d="m 22.287438,87.648437 c 0,0.801642 -0.649859,1.451501 -1.451501,1.451501 -0.801642,0 -1.4515,-0.649859 -1.4515,-1.451501 0,-0.801641 0.649859,-1.4515 1.4515,-1.4515 0.801642,0 1.451501,0.649858 1.451501,1.4515 z m 172.654822,0 c 0,0.801642 0.64986,1.451501 1.4515,1.451501 0.80164,0 1.4515,-0.649859 1.4515,-1.451501 0,-0.801641 -0.64986,-1.4515 -1.4515,-1.4515 -0.80164,0 -1.4515,0.649858 -1.4515,1.4515 z M 14.284769,44.785938 c 0,0.801642 -0.649858,1.451501 -1.4515,1.451501 -0.801642,0 -1.451501,-0.649859 -1.451501,-1.451501 0,-0.801642 0.649859,-1.4515 1.451501,-1.4515 0.801641,0 1.4515,0.649859 1.4515,1.4515 z m 188.660161,0 c 0,0.801642 0.64986,1.451501 1.4515,1.451501 0.80164,0 1.4515,-0.649859 1.4515,-1.451501 0,-0.801642 -0.64986,-1.4515 -1.4515,-1.4515 -0.80164,0 -1.4515,0.649859 -1.4515,1.4515 z M 16.206181,17.996876 c 0,0.801642 -0.649859,1.4515 -1.451501,1.4515 -0.801641,0 -1.4515,-0.649859 -1.4515,-1.4515 0,-0.801642 0.649858,-1.451501 1.4515,-1.451501 0.801642,0 1.451501,0.649859 1.451501,1.451501 z m 184.817339,0 c 0,0.801642 0.64986,1.4515 1.4515,1.4515 0.80164,0 1.4515,-0.649859 1.4515,-1.4515 0,-0.801642 -0.64986,-1.451501 -1.4515,-1.451501 -0.80164,0 -1.4515,0.649859 -1.4515,1.451501 z m -92.38156,35.819786 c 13.08299,-0.188988 4.95065,11.84375 21.4844,25.901066 16.53375,14.057315 67.98637,28.056882 75.34545,10.153458 7.35907,-17.903419 -37.62015,-31.893665 -44.83643,-31.960485 29.2142,-8.203432 49.29284,6.078138 49.16949,-14.031648 -0.0984,-16.037123 -38.61234,-13.630746 -50.50584,-13.831198 11.20914,-6.335021 48.43347,0.02811 49.23534,-10.89756 C 209.33625,8.2246267 187.16188,8.1317536 168.31938,8.0649363 149.47688,7.9981189 144.41989,23.849398 108.61485,23.849398 72.809813,23.849398 67.752824,7.9981189 48.910323,8.0649363 30.067822,8.1317536 7.8934512,8.2246267 8.6953274,19.150295 9.4972036,30.075963 46.721525,23.712834 57.930668,30.047855 46.037174,30.248307 7.5231976,27.84193 7.4248286,43.879053 7.3014776,63.988839 27.38012,49.707269 56.594322,57.910701 49.378044,57.977521 4.3988188,71.967767 11.757893,89.871186 19.116966,107.77461 70.569592,93.775043 87.103341,79.717728 103.63709,65.660412 95.504747,53.627674 108.58774,53.816662"
       inkscape:path-effect="#path-effect4576-7"
       inkscape:original-d="m 22.287438,87.648437 c 0,0.801642 -0.649859,1.451501 -1.451501,1.451501 -0.801642,0 -1.4515,-0.649859 -1.4515,-1.451501 0,-0.801641 0.649859,-1.4515 1.4515,-1.4515 0.801642,0 1.451501,0.649858 1.451501,1.4515 z M 14.284769,44.785938 c 0,0.801642 -0.649858,1.451501 -1.4515,1.451501 -0.801642,0 -1.451501,-0.649859 -1.451501,-1.451501 0,-0.801642 0.649859,-1.4515 1.451501,-1.4515 0.801641,0 1.4515,0.649859 1.4515,1.4515 z m 1.921412,-26.789062 c 0,0.801642 -0.649859,1.4515 -1.451501,1.4515 -0.801641,0 -1.4515,-0.649859 -1.4515,-1.4515 0,-0.801642 0.649858,-1.451501 1.4515,-1.451501 0.801642,0 1.451501,0.649859 1.451501,1.451501 z m 92.408669,5.852522 C 72.809813,23.849398 67.752824,7.9981189 48.910323,8.0649363 30.067822,8.1317536 7.8934512,8.2246267 8.6953274,19.150295 9.4972036,30.075963 46.721525,23.712834 57.930668,30.047855 46.037174,30.248307 7.5231976,27.84193 7.4248286,43.879053 7.3014776,63.988839 27.38012,49.707269 56.594322,57.910701 49.378044,57.977521 4.3988188,71.967767 11.757893,89.871186 19.116966,107.77461 70.569592,93.775043 87.103341,79.717728 103.63709,65.660412 95.504747,53.627674 108.58774,53.816662"
       inkscape:connector-curvature="0"
       transform="matrix(1.0309813,0,0,1.0309813,-6.9798793,93.659154)"
       sodipodi:nodetypes="ssssssssssssssscszcscssc" />
    <path
       id="path4549-6-5-5"
       style="fill:none;fill-opacity:0.42639597;stroke:#000000;stroke-width:0.14012399;stroke-miterlimit:4;stroke-dasharray:none;stroke-dashoffset:0.01396293;stroke-opacity:1"
       d="m 22.287438,87.648437 c 0,0.801642 -0.649859,1.451501 -1.451501,1.451501 -0.801642,0 -1.4515,-0.649859 -1.4515,-1.451501 0,-0.801641 0.649859,-1.4515 1.4515,-1.4515 0.801642,0 1.451501,0.649858 1.451501,1.4515 z m 172.654822,0 c 0,0.801642 0.64986,1.451501 1.4515,1.451501 0.80164,0 1.4515,-0.649859 1.4515,-1.451501 0,-0.801641 -0.64986,-1.4515 -1.4515,-1.4515 -0.80164,0 -1.4515,0.649858 -1.4515,1.4515 z M 14.284769,44.785938 c 0,0.801642 -0.649858,1.451501 -1.4515,1.451501 -0.801642,0 -1.451501,-0.649859 -1.451501,-1.451501 0,-0.801642 0.649859,-1.4515 1.451501,-1.4515 0.801641,0 1.4515,0.649859 1.4515,1.4515 z m 188.660161,0 c 0,0.801642 0.64986,1.451501 1.4515,1.451501 0.80164,0 1.4515,-0.649859 1.4515,-1.451501 0,-0.801642 -0.64986,-1.4515 -1.4515,-1.4515 -0.80164,0 -1.4515,0.649859 -1.4515,1.4515 z M 16.206181,17.996876 c 0,0.801642 -0.649859,1.4515 -1.451501,1.4515 -0.801641,0 -1.4515,-0.649859 -1.4515,-1.4515 0,-0.801642 0.649858,-1.451501 1.4515,-1.451501 0.801642,0 1.451501,0.649859 1.451501,1.451501 z m 184.817339,0 c 0,0.801642 0.64986,1.4515 1.4515,1.4515 0.80164,0 1.4515,-0.649859 1.4515,-1.4515 0,-0.801642 -0.64986,-1.451501 -1.4515,-1.451501 -0.80164,0 -1.4515,0.649859 -1.4515,1.451501 z m -92.38156,35.819786 c 13.08299,-0.188988 4.95065,11.84375 21.4844,25.901066 16.53375,14.057315 67.98637,28.056882 75.34545,10.153458 7.35907,-17.903419 -37.62015,-31.893665 -44.83643,-31.960485 29.2142,-8.203432 49.29284,6.078138 49.16949,-14.031648 -0.0984,-16.037123 -38.61234,-13.630746 -50.50584,-13.831198 11.20914,-6.335021 48.43347,0.02811 49.23534,-10.89756 C 209.33625,8.2246267 187.16188,8.1317536 168.31938,8.0649363 149.47688,7.9981189 144.41989,23.849398 108.61485,23.849398 72.809813,23.849398 67.752824,7.9981189 48.910323,8.0649363 30.067822,8.1317536 7.8934512,8.2246267 8.6953274,19.150295 9.4972036,30.075963 46.721525,23.712834 57.930668,30.047855 46.037174,30.248307 7.5231976,27.84193 7.4248286,43.879053 7.3014776,63.988839 27.38012,49.707269 56.594322,57.910701 49.378044,57.977521 4.3988188,71.967767 11.757893,89.871186 19.116966,107.77461 70.569592,93.775043 87.103341,79.717728 103.63709,65.660412 95.504747,53.627674 108.58774,53.816662"
       inkscape:path-effect="#path-effect4576-7-3"
       inkscape:original-d="m 22.287438,87.648437 c 0,0.801642 -0.649859,1.451501 -1.451501,1.451501 -0.801642,0 -1.4515,-0.649859 -1.4515,-1.451501 0,-0.801641 0.649859,-1.4515 1.4515,-1.4515 0.801642,0 1.451501,0.649858 1.451501,1.4515 z M 14.284769,44.785938 c 0,0.801642 -0.649858,1.451501 -1.4515,1.451501 -0.801642,0 -1.451501,-0.649859 -1.451501,-1.451501 0,-0.801642 0.649859,-1.4515 1.451501,-1.4515 0.801641,0 1.4515,0.649859 1.4515,1.4515 z m 1.921412,-26.789062 c 0,0.801642 -0.649859,1.4515 -1.451501,1.4515 -0.801641,0 -1.4515,-0.649859 -1.4515,-1.4515 0,-0.801642 0.649858,-1.451501 1.4515,-1.451501 0.801642,0 1.451501,0.649859 1.451501,1.451501 z m 92.408669,5.852522 C 72.809813,23.849398 67.752824,7.9981189 48.910323,8.0649363 30.067822,8.1317536 7.8934512,8.2246267 8.6953274,19.150295 9.4972036,30.075963 46.721525,23.712834 57.930668,30.047855 46.037174,30.248307 7.5231976,27.84193 7.4248286,43.879053 7.3014776,63.988839 27.38012,49.707269 56.594322,57.910701 49.378044,57.977521 4.3988188,71.967767 11.757893,89.871186 19.116966,107.77461 70.569592,93.775043 87.103341,79.717728 103.63709,65.660412 95.504747,53.627674 108.58774,53.816662"
       inkscape:connector-curvature="0"
       transform="matrix(1.0309813,0,0,1.0309813,-6.9798793,191.55504)"
       sodipodi:nodetypes="ssssssssssssssscszcscssc" />
  </g>
</svg>
